<?xml version="1.0" encoding="utf-8"?>
<!-- Generator: Adobe Illustrator 25.0.1, SVG Export Plug-In . SVG Version: 6.00 Build 0)  -->
<svg version="1.1" id="Layer_1" xmlns="http://www.w3.org/2000/svg" xmlns:xlink="http://www.w3.org/1999/xlink" x="0px" y="0px"
	 viewBox="0 0 821.69 809.91" style="enable-background:new #fff5f8;" xml:space="preserve">
<style type="text/css">
	.st0{fill:#878787;}
	.st1{fill:#00588D;}
	.st2{clip-path:url(#SVGID_2_);}
	.st3{fill:#E41617;}
	.st4{fill:#FFFFFF;}
	.st5{clip-path:url(#SVGID_4_);}
</style>
<g>
	<defs>
		<rect id="SVGID_3_" x="140.93" y="156.26" width="521.87" height="518.78"/>
	</defs>
	<clipPath id="SVGID_2_">
		<use xlink:href="#SVGID_3_"  style="overflow:visible;"/>
	</clipPath>
	<g class="st2">
		<path class="st3" d="M401.87,156.27c-50.99,0-92.34,41.35-92.34,92.34V582.7c0,50.99,41.35,92.34,92.34,92.34
			s92.34-41.35,92.34-92.34V248.61C494.21,197.61,452.86,156.27,401.87,156.27"/>
	</g>
	<g class="st2">
		<path class="st3" d="M661.25,415.65c0-50.99-41.35-92.34-92.34-92.34H234.82c-50.99,0-92.34,41.35-92.34,92.34
			s41.35,92.34,92.34,92.34h334.09C619.9,507.99,661.25,466.64,661.25,415.65"/>
	</g>
	<g class="st2">
		<path class="st4" d="M568.91,508.06H234.82c-12.47,0-24.58-2.44-35.97-7.26c-11-4.65-20.89-11.32-29.37-19.81
			c-8.49-8.49-15.15-18.37-19.8-29.37c-4.82-11.39-7.26-23.49-7.26-35.97s2.44-24.58,7.26-35.97c4.65-11,11.32-20.89,19.8-29.37
			c8.49-8.49,18.37-15.15,29.37-19.81c11.39-4.82,23.49-7.26,35.97-7.26h334.09c12.47,0,24.58,2.44,35.97,7.26
			c11,4.65,20.89,11.32,29.37,19.81c8.49,8.49,15.15,18.37,19.8,29.37c4.82,11.39,7.26,23.49,7.26,35.97s-2.44,24.58-7.26,35.97
			c-4.65,11-11.32,20.89-19.8,29.37c-8.49,8.49-18.37,15.15-29.37,19.81C593.48,505.62,581.38,508.06,568.91,508.06z M234.82,323.38
			c-50.88,0-92.27,41.39-92.27,92.27s41.39,92.27,92.27,92.27h334.09c50.88,0,92.27-41.39,92.27-92.27s-41.39-92.27-92.27-92.27
			H234.82z"/>
	</g>
	<g class="st2">
		<path class="st4" d="M340.16,369.8c4.7,0,8.5-3.8,8.5-8.5c0-4.68-3.8-8.5-8.5-8.5s-8.5,3.82-8.5,8.5
			C331.66,366,335.46,369.8,340.16,369.8"/>
	</g>
	<g class="st2">
		<path class="st4" d="M340.16,406.03c4.7,0,8.5-3.8,8.5-8.5c0-4.68-3.8-8.5-8.5-8.5s-8.5,3.82-8.5,8.5
			C331.66,402.23,335.46,406.03,340.16,406.03"/>
	</g>
	<g class="st2">
		<path class="st4" d="M340.16,442.26c4.7,0,8.5-3.8,8.5-8.5c0-4.68-3.8-8.5-8.5-8.5s-8.5,3.82-8.5,8.5
			C331.66,438.46,335.46,442.26,340.16,442.26"/>
	</g>
	<g class="st2">
		<path class="st4" d="M340.16,478.49c4.7,0,8.5-3.8,8.5-8.5c0-4.68-3.8-8.5-8.5-8.5s-8.5,3.82-8.5,8.5
			C331.66,474.69,335.46,478.49,340.16,478.49"/>
	</g>
	<g class="st2">
		<path class="st4" d="M371.01,369.8c4.7,0,8.5-3.8,8.5-8.5c0-4.68-3.8-8.5-8.5-8.5c-4.7,0-8.5,3.82-8.5,8.5
			C362.52,366,366.31,369.8,371.01,369.8"/>
	</g>
	<g class="st2">
		<path class="st4" d="M371.01,406.03c4.7,0,8.5-3.8,8.5-8.5c0-4.68-3.8-8.5-8.5-8.5c-4.7,0-8.5,3.82-8.5,8.5
			C362.52,402.23,366.31,406.03,371.01,406.03"/>
	</g>
	<g class="st2">
		<path class="st4" d="M371.01,442.26c4.7,0,8.5-3.8,8.5-8.5c0-4.68-3.8-8.5-8.5-8.5c-4.7,0-8.5,3.82-8.5,8.5
			C362.52,438.46,366.31,442.26,371.01,442.26"/>
	</g>
	<g class="st2">
		<path class="st4" d="M371.01,478.49c4.7,0,8.5-3.8,8.5-8.5c0-4.68-3.8-8.5-8.5-8.5c-4.7,0-8.5,3.82-8.5,8.5
			C362.52,474.69,366.31,478.49,371.01,478.49"/>
	</g>
	<g class="st2">
		<path class="st4" d="M401.87,369.8c4.7,0,8.5-3.8,8.5-8.5c0-4.68-3.8-8.5-8.5-8.5s-8.5,3.82-8.5,8.5
			C393.37,366,397.17,369.8,401.87,369.8"/>
	</g>
	<g class="st2">
		<path class="st4" d="M401.87,406.03c4.7,0,8.5-3.8,8.5-8.5c0-4.68-3.8-8.5-8.5-8.5s-8.5,3.82-8.5,8.5
			C393.37,402.23,397.17,406.03,401.87,406.03"/>
	</g>
	<g class="st2">
		<path class="st4" d="M401.87,442.26c4.7,0,8.5-3.8,8.5-8.5c0-4.68-3.8-8.5-8.5-8.5s-8.5,3.82-8.5,8.5
			C393.37,438.46,397.17,442.26,401.87,442.26"/>
	</g>
	<g class="st2">
		<path class="st4" d="M401.87,478.49c4.7,0,8.5-3.8,8.5-8.5c0-4.68-3.8-8.5-8.5-8.5s-8.5,3.82-8.5,8.5
			C393.37,474.69,397.17,478.49,401.87,478.49"/>
	</g>
	<g class="st2">
		<path class="st4" d="M432.72,369.8c4.7,0,8.5-3.8,8.5-8.5c0-4.68-3.8-8.5-8.5-8.5c-4.7,0-8.5,3.82-8.5,8.5
			C424.23,366,428.02,369.8,432.72,369.8"/>
	</g>
	<g class="st2">
		<path class="st4" d="M432.72,406.03c4.7,0,8.5-3.8,8.5-8.5c0-4.68-3.8-8.5-8.5-8.5c-4.7,0-8.5,3.82-8.5,8.5
			C424.23,402.23,428.02,406.03,432.72,406.03"/>
	</g>
	<g class="st2">
		<path class="st4" d="M432.72,442.26c4.7,0,8.5-3.8,8.5-8.5c0-4.68-3.8-8.5-8.5-8.5c-4.7,0-8.5,3.82-8.5,8.5
			C424.23,438.46,428.02,442.26,432.72,442.26"/>
	</g>
	<g class="st2">
		<path class="st4" d="M432.72,478.49c4.7,0,8.5-3.8,8.5-8.5c0-4.68-3.8-8.5-8.5-8.5c-4.7,0-8.5,3.82-8.5,8.5
			C424.23,474.69,428.02,478.49,432.72,478.49"/>
	</g>
	<g class="st2">
		<path class="st4" d="M463.57,369.8c4.7,0,8.5-3.8,8.5-8.5c0-4.68-3.8-8.5-8.5-8.5s-8.5,3.82-8.5,8.5
			C455.08,366,458.87,369.8,463.57,369.8"/>
	</g>
	<g class="st2">
		<path class="st4" d="M463.57,406.03c4.7,0,8.5-3.8,8.5-8.5c0-4.68-3.8-8.5-8.5-8.5s-8.5,3.82-8.5,8.5
			C455.08,402.23,458.87,406.03,463.57,406.03"/>
	</g>
	<g class="st2">
		<path class="st4" d="M463.57,442.26c4.7,0,8.5-3.8,8.5-8.5c0-4.68-3.8-8.5-8.5-8.5s-8.5,3.82-8.5,8.5
			C455.08,438.46,458.87,442.26,463.57,442.26"/>
	</g>
	<g class="st2">
		<path class="st4" d="M463.57,478.49c4.7,0,8.5-3.8,8.5-8.5c0-4.68-3.8-8.5-8.5-8.5s-8.5,3.82-8.5,8.5
			C455.08,474.69,458.87,478.49,463.57,478.49"/>
	</g>
</g>
</svg>
