<?xml version="1.0" encoding="utf-8"?>
<!-- Generator: Adobe Illustrator 25.0.1, SVG Export Plug-In . SVG Version: 6.00 Build 0)  -->
<svg version="1.1" id="Layer_1" xmlns="http://www.w3.org/2000/svg" xmlns:xlink="http://www.w3.org/1999/xlink" x="0px" y="0px"
	 viewBox="0 0 2721.26 809.91" style="enable-background:new 0 0 2721.26 809.91;" xml:space="preserve">
<style type="text/css">
	.st0{fill:#878787;}
	.st1{fill:#00588D;}
	.st2{clip-path:url(#SVGID_2_);}
	.st3{fill:#fff5f8;}
	.st4{fill:#FFFFFF;}
	.st5{clip-path:url(#SVGID_4_);}
</style>
<g>
	<path class="st0" d="M280.23,564.28c-25.16,0-46.85-6.14-65.08-18.42c-18.24-12.28-32.34-29.62-42.31-52.02
		c-9.97-22.4-14.96-48.71-14.96-78.93c0-31.85,5.28-58.61,15.85-80.27c10.57-21.66,25.12-38.03,43.65-49.12
		c18.53-11.09,39.48-16.63,62.85-16.63c31.4,0,56.41,7.78,75.02,23.33c18.6,15.56,30.96,35.76,37.06,60.62l-45.32,8.71
		c-5.36-16.52-13.84-29.73-25.45-39.63c-11.61-9.9-25.38-14.85-41.31-14.85c-13.99,0-26.79,4.02-38.4,12.06
		c-11.61,8.04-20.91,20.06-27.91,36.06c-7,16-10.49,35.91-10.49,59.73c0,22.03,2.9,41.34,8.71,57.94
		c5.8,16.6,14.36,29.51,25.68,38.74c11.31,9.23,25.45,13.84,42.42,13.84c20.69,0,36.99-5.54,48.9-16.63
		c11.91-11.09,17.86-25.56,17.86-43.43h45.77c0,20.84-4.65,38.59-13.95,53.25c-9.3,14.66-22.37,25.94-39.18,33.83
		C322.8,560.33,303,564.28,280.23,564.28z"/>
	<path class="st0" d="M481.39,297.91c-8.48,0-15.15-2.34-19.98-7.03c-4.84-4.69-7.26-11.05-7.26-19.09c0-7.74,2.42-13.88,7.26-18.42
		c4.84-4.54,11.5-6.81,19.98-6.81c8.33,0,14.92,2.27,19.76,6.81c4.84,4.54,7.26,10.68,7.26,18.42c0,8.04-2.42,14.4-7.26,19.09
		C496.31,295.57,489.72,297.91,481.39,297.91z M460.18,558.47V343.02h42.42v215.46H460.18z"/>
	<path class="st0" d="M674.29,564.28c-20.84,0-38.4-2.94-52.69-8.82c-14.29-5.88-25.19-14.07-32.71-24.56
		c-7.52-10.49-11.43-22.81-11.72-36.95h39.97c0.59,12.36,5.54,21.51,14.85,27.46c9.3,5.96,21.92,8.93,37.84,8.93
		c8.48,0,16.19-1.34,23.11-4.02s12.43-6.33,16.52-10.94c4.09-4.61,6.14-9.82,6.14-15.63c0-7.29-2.68-13.06-8.04-17.3
		s-13.99-8-25.9-11.27l-43.98-14.96c-17.56-5.95-31.03-13.88-40.41-23.78c-9.38-9.9-14.07-21.77-14.07-35.61
		c0-17.71,7.89-31.96,23.67-42.76c15.78-10.79,36.69-16.19,62.74-16.19c26.94,0,47.74,5.69,62.4,17.08
		c14.66,11.39,22.29,25.64,22.89,42.76h-40.86c-1.04-8.48-5.25-14.99-12.61-19.54c-7.37-4.54-17.97-6.81-31.82-6.81
		c-12.95,0-23.11,2.83-30.48,8.48c-7.37,5.66-11.05,12.06-11.05,19.2c0,12.8,11.01,22.33,33.04,28.58l46.22,16.3
		c17.56,5.66,31.11,12.95,40.64,21.88c9.52,8.93,14.29,20.24,14.29,33.94c0,11.02-3.65,21.43-10.94,31.26
		c-7.29,9.82-17.53,17.83-30.7,24C707.45,561.19,692,564.28,674.29,564.28z"/>
	<path class="st0" d="M909.39,564.28c-20.84,0-38.4-2.94-52.69-8.82c-14.29-5.88-25.19-14.07-32.71-24.56
		c-7.52-10.49-11.43-22.81-11.72-36.95h39.97c0.59,12.36,5.54,21.51,14.85,27.46c9.3,5.96,21.92,8.93,37.84,8.93
		c8.48,0,16.19-1.34,23.11-4.02s12.43-6.33,16.52-10.94c4.09-4.61,6.14-9.82,6.14-15.63c0-7.29-2.68-13.06-8.04-17.3
		s-13.99-8-25.9-11.27l-43.98-14.96c-17.56-5.95-31.03-13.88-40.41-23.78c-9.38-9.9-14.07-21.77-14.07-35.61
		c0-17.71,7.89-31.96,23.67-42.76c15.78-10.79,36.69-16.19,62.74-16.19c26.94,0,47.74,5.69,62.4,17.08
		c14.66,11.39,22.29,25.64,22.89,42.76h-40.86c-1.04-8.48-5.25-14.99-12.61-19.54c-7.37-4.54-17.97-6.81-31.82-6.81
		c-12.95,0-23.11,2.83-30.48,8.48c-7.37,5.66-11.05,12.06-11.05,19.2c0,12.8,11.01,22.33,33.04,28.58l46.22,16.3
		c17.56,5.66,31.11,12.95,40.64,21.88c9.52,8.93,14.29,20.24,14.29,33.94c0,11.02-3.65,21.43-10.94,31.26
		c-7.29,9.82-17.53,17.83-30.7,24C942.55,561.19,927.1,564.28,909.39,564.28z"/>
	<path class="st0" d="M1128.64,564.28c-18.01,0-32.97-3.16-44.88-9.49c-11.91-6.32-20.8-14.62-26.68-24.89
		c-5.88-10.27-8.82-21.21-8.82-32.82c0-14.14,3.61-25.79,10.83-34.94c7.22-9.15,17.23-15.96,30.03-20.43
		c12.8-4.47,27.54-6.7,44.21-6.7c11.46,0,22.62,1.04,33.49,3.13c10.86,2.09,21.58,4.84,32.15,8.26v25.68
		c-8.63-3.13-18.2-5.62-28.69-7.48c-10.49-1.86-20.28-2.79-29.36-2.79c-13.55,0-24.86,2.68-33.94,8.04
		c-9.08,5.36-13.62,14.44-13.62,27.24c0,9.38,3.57,17.45,10.72,24.22c7.14,6.77,18.45,10.16,33.94,10.16
		c11.31,0,21.28-2.57,29.92-7.7c8.63-5.14,15.33-11.57,20.09-19.31c4.76-7.74,7.14-15.48,7.14-23.22h10.27
		c0,14.89-3.01,28.62-9.04,41.19c-6.03,12.58-14.77,22.7-26.23,30.36C1158.7,560.44,1144.86,564.28,1128.64,564.28z M1200.53,558.47
		l-5.36-49.34V419.6c0-17.56-3.65-30.33-10.94-38.29c-7.29-7.96-18.83-11.94-34.61-11.94c-8.93,0-16.86,1.3-23.78,3.91
		c-6.92,2.61-12.36,6.51-16.3,11.72c-3.95,5.21-5.92,11.76-5.92,19.65h-46.89c0-15.78,3.87-28.58,11.61-38.4
		c7.74-9.82,18.57-17,32.49-21.55c13.92-4.54,30.18-6.81,48.79-6.81c17.42,0,32.74,2.87,45.99,8.6c13.25,5.73,23.56,14.7,30.92,26.9
		c7.37,12.21,11.05,27.99,11.05,47.33v137.76H1200.53z"/>
</g>
<g>
	<path class="st1" d="M1317.55,274.02h60.95l90.2,186.88h-4.02l90.2-186.88h58.94v284.45h-42.87V320.69h6.92l-97.35,204.07h-27.91
		l-96.9-202.95h4.24v236.67h-42.42V274.02z"/>
	<path class="st1" d="M1777.93,564.28c-18.46,0-35.13-4.77-50.01-14.29c-14.89-9.52-26.68-22.77-35.39-39.74
		c-8.71-16.97-13.06-36.62-13.06-58.94c0-23.67,4.32-43.95,12.95-60.84c8.63-16.89,20.39-29.88,35.28-38.96
		c14.88-9.08,31.63-13.62,50.24-13.62c16.67,0,30.96,3.39,42.87,10.16c11.91,6.77,21.51,15.85,28.8,27.24
		c7.29,11.39,12.31,24.3,15.07,38.74c2.75,14.44,3.24,29.33,1.45,44.65H1713.4v-24.56h123.69l-10.27,6.7
		c0.45-8.04,0.03-16.08-1.23-24.11c-1.27-8.04-3.68-15.44-7.26-22.22c-3.57-6.77-8.6-12.2-15.07-16.3
		c-6.47-4.09-14.7-6.14-24.67-6.14c-12.5,0-22.96,3.13-31.37,9.38c-8.41,6.25-14.77,14.62-19.09,25.12
		c-4.32,10.49-6.48,21.99-6.48,34.5v17.19c0,13.84,2.08,26.12,6.25,36.84c4.17,10.72,10.38,19.17,18.64,25.34
		c8.26,6.18,18.72,9.27,31.37,9.27c12.35,0,22.58-2.9,30.7-8.71c8.11-5.81,13.13-14.51,15.07-26.12h43.31
		c-2.23,13.99-7.37,26.2-15.41,36.62c-8.04,10.42-18.35,18.5-30.92,24.22C1808.1,561.41,1793.85,564.28,1777.93,564.28z"/>
	<path class="st1" d="M2011.24,564.28c-17.56,0-33.71-4.73-48.45-14.18c-14.74-9.45-26.46-22.7-35.17-39.74
		c-8.71-17.04-13.06-37.1-13.06-60.17c0-22.92,4.28-42.79,12.84-59.61c8.56-16.82,19.91-29.81,34.05-38.96
		c14.14-9.15,29.84-13.73,47.11-13.73c15.78,0,29.54,3.83,41.3,11.5c11.76,7.67,20.88,18.79,27.35,33.38
		c6.48,14.59,9.71,32.37,9.71,53.36h-14.74c0-12.95-2.61-23.92-7.81-32.93c-5.21-9-11.98-15.81-20.32-20.43
		c-8.34-4.61-17.27-6.92-26.79-6.92c-11.16,0-21.25,3.01-30.25,9.04c-9.01,6.03-16.15,14.59-21.43,25.68
		c-5.29,11.09-7.93,24.3-7.93,39.63c0,15.48,2.64,28.91,7.93,40.3c5.28,11.39,12.43,20.13,21.43,26.23c9,6.1,19.01,9.15,30.03,9.15
		c9.08,0,17.82-2.42,26.23-7.26c8.41-4.83,15.33-11.79,20.76-20.88c5.43-9.08,8.15-19.87,8.15-32.37h14.74
		c0,21.43-3.39,39.52-10.16,54.25c-6.77,14.74-15.89,25.86-27.35,33.38C2037.96,560.52,2025.23,564.28,2011.24,564.28z
		 M2079.56,558.47l-7.37-51.58V253.26h42.64v305.21H2079.56z"/>
</g>
<g>
	<defs>
		<rect id="SVGID_1_" x="72.95" y="119.45" width="2587.82" height="621.76"/>
	</defs>
	<clipPath id="SVGID_2_">
		<use xlink:href="#SVGID_1_"  style="overflow:visible;"/>
	</clipPath>
	<g class="st2">
		<path class="st3" d="M2420.47,248.63c-30.98,0-56.09,25.11-56.09,56.09v202.96c0,30.98,25.11,56.09,56.09,56.09
			c30.98,0,56.09-25.11,56.09-56.09V304.72C2476.56,273.75,2451.45,248.63,2420.47,248.63"/>
	</g>
	<g class="st2">
		<path class="st3" d="M2578.04,406.21c0-30.98-25.11-56.09-56.09-56.09h-202.96c-30.98,0-56.09,25.11-56.09,56.09
			s25.11,56.09,56.09,56.09h202.96C2552.93,462.3,2578.04,437.19,2578.04,406.21"/>
	</g>
	<g class="st2">
		<path class="st4" d="M2521.95,462.59h-202.96c-31.09,0-56.39-25.29-56.39-56.38s25.3-56.38,56.39-56.38h202.96
			c31.09,0,56.38,25.29,56.38,56.38S2553.04,462.59,2521.95,462.59z M2318.99,350.41c-30.77,0-55.8,25.03-55.8,55.8
			s25.03,55.8,55.8,55.8h202.96c30.77,0,55.79-25.03,55.79-55.8s-25.03-55.8-55.79-55.8H2318.99z"/>
	</g>
	<g class="st2">
		<path class="st4" d="M2382.98,378.35c2.85,0,5.16-2.31,5.16-5.16s-2.31-5.16-5.16-5.16s-5.16,2.31-5.16,5.16
			S2380.13,378.35,2382.98,378.35"/>
	</g>
	<g class="st2">
		<path class="st4" d="M2382.98,400.36c2.85,0,5.16-2.31,5.16-5.16s-2.31-5.16-5.16-5.16s-5.16,2.31-5.16,5.16
			S2380.13,400.36,2382.98,400.36"/>
	</g>
	<g class="st2">
		<path class="st4" d="M2382.98,422.37c2.85,0,5.16-2.31,5.16-5.16c0-2.85-2.31-5.16-5.16-5.16s-5.16,2.31-5.16,5.16
			C2377.82,420.06,2380.13,422.37,2382.98,422.37"/>
	</g>
	<g class="st2">
		<path class="st4" d="M2382.98,444.38c2.85,0,5.16-2.31,5.16-5.16s-2.31-5.16-5.16-5.16s-5.16,2.31-5.16,5.16
			S2380.13,444.38,2382.98,444.38"/>
	</g>
	<g class="st2">
		<path class="st4" d="M2401.72,378.35c2.85,0,5.16-2.31,5.16-5.16s-2.31-5.16-5.16-5.16c-2.85,0-5.16,2.31-5.16,5.16
			S2398.87,378.35,2401.72,378.35"/>
	</g>
	<g class="st2">
		<path class="st4" d="M2401.72,400.36c2.85,0,5.16-2.31,5.16-5.16s-2.31-5.16-5.16-5.16c-2.85,0-5.16,2.31-5.16,5.16
			S2398.87,400.36,2401.72,400.36"/>
	</g>
	<g class="st2">
		<path class="st4" d="M2401.72,422.37c2.85,0,5.16-2.31,5.16-5.16c0-2.85-2.31-5.16-5.16-5.16c-2.85,0-5.16,2.31-5.16,5.16
			C2396.56,420.06,2398.87,422.37,2401.72,422.37"/>
	</g>
	<g class="st2">
		<path class="st4" d="M2401.72,444.38c2.85,0,5.16-2.31,5.16-5.16s-2.31-5.16-5.16-5.16c-2.85,0-5.16,2.31-5.16,5.16
			S2398.87,444.38,2401.72,444.38"/>
	</g>
	<g class="st2">
		<path class="st4" d="M2420.47,378.35c2.85,0,5.16-2.31,5.16-5.16s-2.31-5.16-5.16-5.16s-5.16,2.31-5.16,5.16
			S2417.62,378.35,2420.47,378.35"/>
	</g>
	<g class="st2">
		<path class="st4" d="M2420.47,400.36c2.85,0,5.16-2.31,5.16-5.16s-2.31-5.16-5.16-5.16s-5.16,2.31-5.16,5.16
			S2417.62,400.36,2420.47,400.36"/>
	</g>
	<g class="st2">
		<path class="st4" d="M2420.47,422.37c2.85,0,5.16-2.31,5.16-5.16c0-2.85-2.31-5.16-5.16-5.16s-5.16,2.31-5.16,5.16
			C2415.31,420.06,2417.62,422.37,2420.47,422.37"/>
	</g>
	<g class="st2">
		<path class="st4" d="M2420.47,444.38c2.85,0,5.16-2.31,5.16-5.16s-2.31-5.16-5.16-5.16s-5.16,2.31-5.16,5.16
			S2417.62,444.38,2420.47,444.38"/>
	</g>
	<g class="st2">
		<path class="st4" d="M2439.21,378.35c2.85,0,5.16-2.31,5.16-5.16s-2.31-5.16-5.16-5.16c-2.85,0-5.16,2.31-5.16,5.16
			S2436.36,378.35,2439.21,378.35"/>
	</g>
	<g class="st2">
		<path class="st4" d="M2439.21,400.36c2.85,0,5.16-2.31,5.16-5.16s-2.31-5.16-5.16-5.16c-2.85,0-5.16,2.31-5.16,5.16
			S2436.36,400.36,2439.21,400.36"/>
	</g>
	<g class="st2">
		<path class="st4" d="M2439.21,422.37c2.85,0,5.16-2.31,5.16-5.16c0-2.85-2.31-5.16-5.16-5.16c-2.85,0-5.16,2.31-5.16,5.16
			C2434.05,420.06,2436.36,422.37,2439.21,422.37"/>
	</g>
	<g class="st2">
		<path class="st4" d="M2439.21,444.38c2.85,0,5.16-2.31,5.16-5.16s-2.31-5.16-5.16-5.16c-2.85,0-5.16,2.31-5.16,5.16
			S2436.36,444.38,2439.21,444.38"/>
	</g>
	<g class="st2">
		<path class="st4" d="M2457.95,378.35c2.85,0,5.16-2.31,5.16-5.16s-2.31-5.16-5.16-5.16s-5.16,2.31-5.16,5.16
			S2455.1,378.35,2457.95,378.35"/>
	</g>
	<g class="st2">
		<path class="st4" d="M2457.95,400.36c2.85,0,5.16-2.31,5.16-5.16s-2.31-5.16-5.16-5.16s-5.16,2.31-5.16,5.16
			S2455.1,400.36,2457.95,400.36"/>
	</g>
	<g class="st2">
		<path class="st4" d="M2457.95,422.37c2.85,0,5.16-2.31,5.16-5.16c0-2.85-2.31-5.16-5.16-5.16s-5.16,2.31-5.16,5.16
			C2452.79,420.06,2455.1,422.37,2457.95,422.37"/>
	</g>
	<g class="st2">
		<path class="st4" d="M2457.95,444.38c2.85,0,5.16-2.31,5.16-5.16s-2.31-5.16-5.16-5.16s-5.16,2.31-5.16,5.16
			S2455.1,444.38,2457.95,444.38"/>
	</g>
</g>
<g>
	<defs>
		<rect id="SVGID_3_" x="2882.19" y="156.26" width="521.87" height="518.78"/>
	</defs>
	<clipPath id="SVGID_4_">
		<use xlink:href="#SVGID_3_"  style="overflow:visible;"/>
	</clipPath>
	<g class="st5">
		<path class="st3" d="M3143.13,156.27c-50.99,0-92.34,41.35-92.34,92.34V582.7c0,50.99,41.35,92.34,92.34,92.34
			s92.34-41.35,92.34-92.34V248.61C3235.47,197.61,3194.12,156.27,3143.13,156.27"/>
	</g>
	<g class="st5">
		<path class="st3" d="M3402.51,415.65c0-50.99-41.35-92.34-92.34-92.34h-334.09c-50.99,0-92.34,41.35-92.34,92.34
			s41.35,92.34,92.34,92.34h334.09C3361.16,507.99,3402.51,466.64,3402.51,415.65"/>
	</g>
	<g class="st5">
		<path class="st4" d="M3310.17,508.06h-334.09c-12.47,0-24.58-2.44-35.97-7.26c-11-4.65-20.89-11.32-29.37-19.81
			c-8.49-8.49-15.15-18.37-19.8-29.37c-4.82-11.39-7.26-23.49-7.26-35.97s2.44-24.58,7.26-35.97c4.65-11,11.32-20.89,19.8-29.37
			c8.49-8.49,18.37-15.15,29.37-19.81c11.39-4.82,23.49-7.26,35.97-7.26h334.09c12.47,0,24.58,2.44,35.97,7.26
			c11,4.65,20.89,11.32,29.37,19.81c8.49,8.49,15.15,18.37,19.8,29.37c4.82,11.39,7.26,23.49,7.26,35.97s-2.44,24.58-7.26,35.97
			c-4.65,11-11.32,20.89-19.8,29.37c-8.49,8.49-18.37,15.15-29.37,19.81C3334.74,505.62,3322.64,508.06,3310.17,508.06z
			 M2976.07,323.38c-50.88,0-92.27,41.39-92.27,92.27s41.39,92.27,92.27,92.27h334.09c50.88,0,92.27-41.39,92.27-92.27
			s-41.39-92.27-92.27-92.27H2976.07z"/>
	</g>
	<g class="st5">
		<path class="st4" d="M3081.42,369.8c4.7,0,8.5-3.8,8.5-8.5c0-4.68-3.8-8.5-8.5-8.5s-8.5,3.82-8.5,8.5
			C3072.92,366,3076.72,369.8,3081.42,369.8"/>
	</g>
	<g class="st5">
		<path class="st4" d="M3081.42,406.03c4.7,0,8.5-3.8,8.5-8.5c0-4.68-3.8-8.5-8.5-8.5s-8.5,3.82-8.5,8.5
			C3072.92,402.23,3076.72,406.03,3081.42,406.03"/>
	</g>
	<g class="st5">
		<path class="st4" d="M3081.42,442.26c4.7,0,8.5-3.8,8.5-8.5c0-4.68-3.8-8.5-8.5-8.5s-8.5,3.82-8.5,8.5
			C3072.92,438.46,3076.72,442.26,3081.42,442.26"/>
	</g>
	<g class="st5">
		<path class="st4" d="M3081.42,478.49c4.7,0,8.5-3.8,8.5-8.5c0-4.68-3.8-8.5-8.5-8.5s-8.5,3.82-8.5,8.5
			C3072.92,474.69,3076.72,478.49,3081.42,478.49"/>
	</g>
	<g class="st5">
		<path class="st4" d="M3112.27,369.8c4.7,0,8.5-3.8,8.5-8.5c0-4.68-3.8-8.5-8.5-8.5s-8.5,3.82-8.5,8.5
			C3103.78,366,3107.57,369.8,3112.27,369.8"/>
	</g>
	<g class="st5">
		<path class="st4" d="M3112.27,406.03c4.7,0,8.5-3.8,8.5-8.5c0-4.68-3.8-8.5-8.5-8.5s-8.5,3.82-8.5,8.5
			C3103.78,402.23,3107.57,406.03,3112.27,406.03"/>
	</g>
	<g class="st5">
		<path class="st4" d="M3112.27,442.26c4.7,0,8.5-3.8,8.5-8.5c0-4.68-3.8-8.5-8.5-8.5s-8.5,3.82-8.5,8.5
			C3103.78,438.46,3107.57,442.26,3112.27,442.26"/>
	</g>
	<g class="st5">
		<path class="st4" d="M3112.27,478.49c4.7,0,8.5-3.8,8.5-8.5c0-4.68-3.8-8.5-8.5-8.5s-8.5,3.82-8.5,8.5
			C3103.78,474.69,3107.57,478.49,3112.27,478.49"/>
	</g>
	<g class="st5">
		<path class="st4" d="M3143.13,369.8c4.7,0,8.5-3.8,8.5-8.5c0-4.68-3.8-8.5-8.5-8.5s-8.5,3.82-8.5,8.5
			C3134.63,366,3138.43,369.8,3143.13,369.8"/>
	</g>
	<g class="st5">
		<path class="st4" d="M3143.13,406.03c4.7,0,8.5-3.8,8.5-8.5c0-4.68-3.8-8.5-8.5-8.5s-8.5,3.82-8.5,8.5
			C3134.63,402.23,3138.43,406.03,3143.13,406.03"/>
	</g>
	<g class="st5">
		<path class="st4" d="M3143.13,442.26c4.7,0,8.5-3.8,8.5-8.5c0-4.68-3.8-8.5-8.5-8.5s-8.5,3.82-8.5,8.5
			C3134.63,438.46,3138.43,442.26,3143.13,442.26"/>
	</g>
	<g class="st5">
		<path class="st4" d="M3143.13,478.49c4.7,0,8.5-3.8,8.5-8.5c0-4.68-3.8-8.5-8.5-8.5s-8.5,3.82-8.5,8.5
			C3134.63,474.69,3138.43,478.49,3143.13,478.49"/>
	</g>
	<g class="st5">
		<path class="st4" d="M3173.98,369.8c4.7,0,8.5-3.8,8.5-8.5c0-4.68-3.8-8.5-8.5-8.5s-8.5,3.82-8.5,8.5
			C3165.49,366,3169.28,369.8,3173.98,369.8"/>
	</g>
	<g class="st5">
		<path class="st4" d="M3173.98,406.03c4.7,0,8.5-3.8,8.5-8.5c0-4.68-3.8-8.5-8.5-8.5s-8.5,3.82-8.5,8.5
			C3165.49,402.23,3169.28,406.03,3173.98,406.03"/>
	</g>
	<g class="st5">
		<path class="st4" d="M3173.98,442.26c4.7,0,8.5-3.8,8.5-8.5c0-4.68-3.8-8.5-8.5-8.5s-8.5,3.82-8.5,8.5
			C3165.49,438.46,3169.28,442.26,3173.98,442.26"/>
	</g>
	<g class="st5">
		<path class="st4" d="M3173.98,478.49c4.7,0,8.5-3.8,8.5-8.5c0-4.68-3.8-8.5-8.5-8.5s-8.5,3.82-8.5,8.5
			C3165.49,474.69,3169.28,478.49,3173.98,478.49"/>
	</g>
	<g class="st5">
		<path class="st4" d="M3204.83,369.8c4.7,0,8.5-3.8,8.5-8.5c0-4.68-3.8-8.5-8.5-8.5s-8.5,3.82-8.5,8.5
			C3196.34,366,3200.13,369.8,3204.83,369.8"/>
	</g>
	<g class="st5">
		<path class="st4" d="M3204.83,406.03c4.7,0,8.5-3.8,8.5-8.5c0-4.68-3.8-8.5-8.5-8.5s-8.5,3.82-8.5,8.5
			C3196.34,402.23,3200.13,406.03,3204.83,406.03"/>
	</g>
	<g class="st5">
		<path class="st4" d="M3204.83,442.26c4.7,0,8.5-3.8,8.5-8.5c0-4.68-3.8-8.5-8.5-8.5s-8.5,3.82-8.5,8.5
			C3196.34,438.46,3200.13,442.26,3204.83,442.26"/>
	</g>
	<g class="st5">
		<path class="st4" d="M3204.83,478.49c4.7,0,8.5-3.8,8.5-8.5c0-4.68-3.8-8.5-8.5-8.5s-8.5,3.82-8.5,8.5
			C3196.34,474.69,3200.13,478.49,3204.83,478.49"/>
	</g>
</g>
</svg>
