<?xml version="1.0" encoding="utf-8"?>
<!-- Generator: Adobe Illustrator 25.0.1, SVG Export Plug-In . SVG Version: 6.00 Build 0)  -->
<svg version="1.1" id="Layer_1" xmlns="http://www.w3.org/2000/svg" xmlns:xlink="http://www.w3.org/1999/xlink" x="0px" y="0px"
	 viewBox="0 0 792 612" style="enable-background:new 0 0 792 612;" xml:space="preserve">
<style type="text/css">
	.st0{clip-path:url(#SVGID_2_);fill:#E41617;}
	.st1{clip-path:url(#SVGID_2_);fill:#FFFFFF;}
	.st2{clip-path:url(#SVGID_4_);fill:#E41617;}
	.st3{clip-path:url(#SVGID_4_);fill:#FFFFFF;}
	.st4{clip-path:url(#SVGID_6_);fill:#E41617;}
	.st5{clip-path:url(#SVGID_6_);fill:#FFFFFF;}
	.st6{fill:none;stroke:#E41617;stroke-width:8.057;stroke-linecap:round;}
	.st7{clip-path:url(#SVGID_8_);fill:#E41617;}
	.st8{clip-path:url(#SVGID_8_);fill:#FFFFFF;}
	.st9{clip-path:url(#SVGID_10_);}
	.st10{clip-path:url(#SVGID_12_);fill:#00588D;}
	.st11{filter:url(#Adobe_OpacityMaskFilter);}
	.st12{clip-path:url(#SVGID_12_);}
	.st13{clip-path:url(#SVGID_12_);mask:url(#SVGID_13_);}
	.st14{opacity:0.3;clip-path:url(#SVGID_17_);}
	.st15{clip-path:url(#SVGID_12_);fill:none;stroke:#FFFFFF;stroke-width:0.7;}
</style>
<g>
	<defs>
		<rect id="SVGID_3_" x="292.89" y="173.16" width="218.06" height="218.06"/>
	</defs>
	<clipPath id="SVGID_2_">
		<use xlink:href="#SVGID_3_"  style="overflow:visible;"/>
	</clipPath>
	<path class="st0" d="M401.92,391.22c60.22,0,109.03-48.82,109.03-109.03s-48.82-109.03-109.03-109.03s-109.03,48.82-109.03,109.03
		S341.7,391.22,401.92,391.22"/>
	<path class="st1" d="M402.01,284.01c-10.93,0-19.79-8.86-19.79-19.8c0-10.93,8.86-19.8,19.79-19.8c10.94,0,19.8,8.87,19.8,19.8
		C421.8,275.16,412.95,284.01,402.01,284.01 M402.01,220.78c-23.87,0-43.23,19.35-43.23,43.23c0,30.43,43.23,82.64,43.23,82.64
		s43.24-52.2,43.24-82.64C445.24,240.13,425.89,220.78,402.01,220.78"/>
</g>
</svg>
