<?xml version="1.0" encoding="utf-8"?>
<!-- Generator: Adobe Illustrator 25.0.1, SVG Export Plug-In . SVG Version: 6.00 Build 0)  -->
<svg version="1.1" id="Layer_1" xmlns="http://www.w3.org/2000/svg" xmlns:xlink="http://www.w3.org/1999/xlink" x="0px" y="0px"
	 viewBox="0 0 792 612" style="enable-background:new 0 0 792 612;" xml:space="preserve">
<style type="text/css">
	.st0{clip-path:url(#SVGID_2_);fill:#E41617;}
	.st1{clip-path:url(#SVGID_2_);fill:#FFFFFF;}
	.st2{clip-path:url(#SVGID_4_);fill:#E41617;}
	.st3{clip-path:url(#SVGID_4_);fill:#FFFFFF;}
	.st4{clip-path:url(#SVGID_6_);fill:#E41617;}
	.st5{clip-path:url(#SVGID_6_);fill:#FFFFFF;}
	.st6{fill:none;stroke:#E41617;stroke-width:8.057;stroke-linecap:round;}
	.st7{clip-path:url(#SVGID_8_);fill:#E41617;}
	.st8{clip-path:url(#SVGID_8_);fill:#FFFFFF;}
	.st9{clip-path:url(#SVGID_10_);}
	.st10{clip-path:url(#SVGID_12_);fill:#00588D;}
	.st11{filter:url(#Adobe_OpacityMaskFilter);}
	.st12{clip-path:url(#SVGID_12_);}
	.st13{clip-path:url(#SVGID_12_);mask:url(#SVGID_13_);}
	.st14{opacity:0.3;clip-path:url(#SVGID_17_);}
	.st15{clip-path:url(#SVGID_12_);fill:none;stroke:#FFFFFF;stroke-width:0.7;}
</style>
<g>
	<defs>
		<rect id="SVGID_7_" x="286.97" y="169.54" width="218.06" height="218.06"/>
	</defs>
	<clipPath id="SVGID_2_">
		<use xlink:href="#SVGID_7_"  style="overflow:visible;"/>
	</clipPath>
	<path class="st0" d="M396,387.61c60.22,0,109.03-48.82,109.03-109.03S456.22,169.54,396,169.54s-109.03,48.82-109.03,109.03
		S335.78,387.61,396,387.61"/>
	<path class="st1" d="M356.34,223.39l4.86-3.49c2.39-1.71,5.81-1.17,7.65,1.22l15.73,20.46c2.11,2.74,1.59,6.55-1.14,8.52
		l-3.73,2.68c-4.77,3.43-5.67,10.08-1.99,14.85l25.83,33.6c3.67,4.78,10.52,5.87,15.29,2.45l3.73-2.68c2.74-1.96,6.66-1.34,8.77,1.4
		l15.73,20.47c1.83,2.38,1.39,5.7-0.99,7.41l-4.88,3.5c-14.99,10.76-39.58,3.27-68.88-34.84l-1.35-1.76
		C341.67,259.06,341.35,234.15,356.34,223.39"/>
</g>
</svg>
